<?xml version="1.0" encoding="UTF-8" standalone="no"?>
<svg width="40px" height="40px" viewBox="0 0 40 40" version="1.1" xmlns="http://www.w3.org/2000/svg" xmlns:xlink="http://www.w3.org/1999/xlink">
    <!-- Generator: Sketch 39.1 (31720) - http://www.bohemiancoding.com/sketch -->
    <title>cart</title>
    <desc>Created with Sketch.</desc>
    <defs></defs>
    <g id="Designsystem---Moduler" stroke="none" stroke-width="1" fill="none" fill-rule="evenodd">
        <g id="---Ikoner" transform="translate(-38.000000, -30.000000)" fill="#212422">
            <g id="Cart" transform="translate(41.500000, 34.000000)">
                <path d="M22,25.9622128 C20.483375,25.9622128 19.25,27.1836596 19.25,28.685617 C19.25,30.1875745 20.483375,31.4090213 22,31.4090213 C23.516625,31.4090213 24.75,30.1875745 24.75,28.685617 C24.75,27.1836596 23.516625,25.9622128 22,25.9622128 L22,25.9622128 Z M22,30.0473191 C21.2416875,30.0473191 20.625,29.4359149 20.625,28.685617 C20.625,27.9346383 21.2416875,27.3239149 22,27.3239149 C22.7583125,27.3239149 23.375,27.9346383 23.375,28.685617 C23.375,29.4359149 22.7583125,30.0473191 22,30.0473191 L22,30.0473191 Z" id="Fill-1"></path>
                <path d="M6.875,25.9622128 C5.358375,25.9622128 4.125,27.1836596 4.125,28.685617 C4.125,30.1875745 5.358375,31.4090213 6.875,31.4090213 C8.391625,31.4090213 9.625,30.1875745 9.625,28.685617 C9.625,27.1836596 8.391625,25.9622128 6.875,25.9622128 L6.875,25.9622128 Z M6.875,30.0473191 C6.1166875,30.0473191 5.5,29.4359149 5.5,28.685617 C5.5,27.9346383 6.1166875,27.3239149 6.875,27.3239149 C7.6333125,27.3239149 8.25,27.9346383 8.25,28.685617 C8.25,29.4359149 7.6333125,30.0473191 6.875,30.0473191 L6.875,30.0473191 Z" id="Fill-2"></path>
                <path d="M32.3125,0.0898723404 L30.25,0.0898723404 C29.9014375,0.0898723404 29.607875,0.348595745 29.5673125,0.69106383 L26.8888125,23.2388085 L0.6875,23.2388085 C0.308,23.2388085 0,23.5431489 0,23.9196596 C0,24.2961702 0.308,24.6005106 0.6875,24.6005106 L27.5,24.6005106 C27.8485625,24.6005106 28.142125,24.3417872 28.1826875,23.9993191 L30.8611875,1.45157447 L32.3125,1.45157447 C32.692,1.45157447 33,1.14723404 33,0.770723404 C33,0.394212766 32.692,0.0898723404 32.3125,0.0898723404" id="Fill-3"></path>
                <path d="M2.0625,21.8771064 L24.0625,21.8771064 C24.442,21.8771064 24.75,21.572766 24.75,21.1962553 L24.75,6.21753191 C24.75,5.84102128 24.442,5.53668085 24.0625,5.53668085 L14.4375,5.53668085 C14.058,5.53668085 13.75,5.84102128 13.75,6.21753191 L13.75,15.0685957 L12.375,15.0685957 L12.375,11.6643404 C12.375,11.2878298 12.067,10.9834894 11.6875,10.9834894 L3.4375,10.9834894 C3.058,10.9834894 2.75,11.2878298 2.75,11.6643404 L2.75,15.0685957 L2.0625,15.0685957 C1.683,15.0685957 1.375,15.3729362 1.375,15.7494468 L1.375,21.1962553 C1.375,21.572766 1.683,21.8771064 2.0625,21.8771064 L2.0625,21.8771064 Z M15.125,6.89838298 L23.375,6.89838298 L23.375,20.5154043 L15.125,20.5154043 L15.125,6.89838298 Z M4.125,12.3451915 L11,12.3451915 L11,15.0685957 L4.125,15.0685957 L4.125,12.3451915 Z M2.75,16.4302979 L13.75,16.4302979 L13.75,20.5154043 L2.75,20.5154043 L2.75,16.4302979 Z" id="Fill-4"></path>
            </g>
        </g>
    </g>
</svg>