<?xml version="1.0" encoding="UTF-8" standalone="no"?>
<svg width="20px" height="20px" viewBox="0 0 20 20" version="1.1" xmlns="http://www.w3.org/2000/svg" xmlns:xlink="http://www.w3.org/1999/xlink">
    <title>search</title>
    <g id="Designsystem---Moduler" stroke="none" stroke-width="1" fill="none" fill-rule="evenodd">
        <g id="---Ikoner" transform="translate(-68.000000, -78.000000)" stroke="#FFF" stroke-width="1.02857137" fill="#FFF">
            <path d="M71.5833348,85.9583333 C71.5833348,83.5459583 73.5459649,81.5833333 75.9583461,81.5833333 C78.3707274,81.5833333 80.3333574,83.5459583 80.3333574,85.9583333 C80.3333574,88.3707083 78.3707274,90.3333333 75.9583461,90.3333333 C73.5459649,90.3333333 71.5833348,88.3707083 71.5833348,85.9583333 M84.9148693,94.5024167 L79.6703974,89.2343333 C80.443316,88.359625 80.9166923,87.2145417 80.9166923,85.9583333 C80.9166923,83.22425 78.6924365,81 75.9583461,81 C73.2242557,81 71,83.22425 71,85.9583333 C71,88.6924167 73.2242557,90.9166667 75.9583461,90.9166667 C77.2268077,90.9166667 78.3815191,90.4339583 79.2591463,89.6479167 L84.5018682,94.91425 C84.5587433,94.9714167 84.6334102,95 84.7083687,95 C84.7827439,95 84.8571191,94.9717083 84.9142859,94.9148333 C85.0283279,94.801375 85.0286196,94.61675 84.9148693,94.5024167" id="Page-1-Copy-2"></path>
        </g>
    </g>
</svg>